<svg xmlns="http://www.w3.org/2000/svg" xmlns:xlink="http://www.w3.org/1999/xlink" width="500" zoomAndPan="magnify" viewBox="0 0 375 374.999991" height="500" preserveAspectRatio="xMidYMid meet" version="1.0"><defs><g/><clipPath id="id1"><path d="M 30.492188 30.492188 L 344.257812 30.492188 L 344.257812 344.257812 L 30.492188 344.257812 Z M 30.492188 30.492188 " clip-rule="nonzero"/></clipPath><clipPath id="id2"><path d="M 155 56.9375 L 229 56.9375 L 229 121 L 155 121 Z M 155 56.9375 " clip-rule="nonzero"/></clipPath><clipPath id="id3"><path d="M 142 137 L 231 137 L 231 228.6875 L 142 228.6875 Z M 142 137 " clip-rule="nonzero"/></clipPath></defs><g clip-path="url(#id1)"><path fill="#ffffff" d="M 187.375 344.257812 C 145.488281 344.257812 106.050781 327.953125 76.453125 298.296875 C 46.796875 268.699219 30.492188 229.257812 30.492188 187.375 C 30.492188 145.488281 46.796875 106.050781 76.453125 76.453125 C 106.050781 46.796875 145.488281 30.492188 187.375 30.492188 C 229.257812 30.492188 268.699219 46.796875 298.296875 76.453125 C 327.953125 106.113281 344.257812 145.488281 344.257812 187.375 C 344.257812 229.257812 327.953125 268.699219 298.296875 298.296875 C 268.699219 327.953125 229.257812 344.257812 187.375 344.257812 Z M 187.375 39.898438 C 147.996094 39.898438 110.941406 55.261719 83.101562 83.101562 C 55.261719 110.941406 39.898438 147.996094 39.898438 187.375 C 39.898438 226.75 55.261719 263.808594 83.101562 291.648438 C 110.941406 319.488281 147.996094 334.851562 187.375 334.851562 C 226.75 334.851562 263.808594 319.488281 291.648438 291.648438 C 319.488281 263.808594 334.851562 226.75 334.851562 187.375 C 334.851562 147.996094 319.488281 110.941406 291.648438 83.101562 C 263.808594 55.261719 226.75 39.898438 187.375 39.898438 Z M 187.375 39.898438 " fill-opacity="1" fill-rule="nonzero"/></g><path fill="#ffffff" d="M 159.316406 89.644531 L 174.398438 84.011719 C 162.707031 77.394531 150.851562 81.632812 150.851562 81.632812 C 140.742188 89.898438 144.730469 123.195312 144.730469 123.195312 C 144.730469 123.195312 154.941406 90.460938 159.316406 89.644531 " fill-opacity="1" fill-rule="nonzero"/><g clip-path="url(#id2)"><path fill="#ffffff" d="M 209.199219 86.464844 C 219.671875 89.726562 227.332031 120.652344 227.332031 120.652344 C 227.332031 120.652344 232.132812 91.800781 223.519531 73.671875 C 226.550781 66.304688 225.984375 56.917969 225.984375 56.917969 C 223.984375 61.125 221.488281 63.59375 219.210938 65.046875 C 219.585938 61.164062 219.410156 58.222656 219.410156 58.222656 C 218.210938 60.75 216.828125 62.648438 215.425781 64.078125 C 200.398438 72.328125 167.445312 65.027344 156.210938 72.3125 C 150.808594 75.816406 174.71875 80.160156 176.433594 81.15625 C 185.253906 86.269531 201.777344 84.160156 209.199219 86.464844 " fill-opacity="1" fill-rule="nonzero"/></g><g clip-path="url(#id3)"><path fill="#ffffff" d="M 198.488281 179.519531 L 197.867188 179.519531 C 195.40625 179.519531 193.007812 178.800781 190.964844 177.476562 C 189.691406 176.648438 188.21875 176.1875 186.703125 176.144531 L 186.613281 176.140625 L 186.613281 176.132812 C 186.507812 176.128906 186.402344 176.125 186.300781 176.125 L 186.183594 176.128906 C 184.667969 176.171875 183.195312 176.636719 181.921875 177.460938 C 179.878906 178.785156 177.480469 179.503906 175.019531 179.503906 L 174.398438 179.503906 L 170.167969 171.808594 C 170.167969 171.808594 182.667969 165.769531 186.34375 165.402344 C 189.90625 165.554688 202.71875 171.820312 202.71875 171.820312 Z M 208.347656 162.042969 C 203.679688 163.035156 196.5625 154.335938 190.011719 155.308594 C 188.910156 155.472656 187.023438 157.996094 186.449219 158.800781 C 185.882812 158.011719 183.980469 155.457031 182.875 155.292969 C 176.324219 154.320312 169.203125 163.023438 164.535156 162.027344 C 157.378906 160.503906 143.472656 137.65625 143.472656 137.65625 C 150.566406 179.503906 136.65625 195.769531 145.039062 204.566406 C 150.023438 209.789062 179.054688 228.648438 186.269531 228.648438 C 186.386719 228.65625 186.507812 228.664062 186.613281 228.664062 C 193.832031 228.664062 222.863281 209.804688 227.84375 204.578125 C 236.230469 195.78125 222.316406 179.519531 229.410156 137.667969 C 229.410156 137.667969 215.507812 160.519531 208.347656 162.042969 " fill-opacity="1" fill-rule="nonzero"/></g><path stroke-linecap="round" transform="matrix(3.754803, 0.000000000000000625, -0.000000000000000624, 3.75, 60.207905, 238.113193)" fill="none" stroke-linejoin="miter" d="M 0.999528 0.0000234896 L 67.315631 0.0000234896 " stroke="#ffffff" stroke-width="1" stroke-opacity="1" stroke-miterlimit="4"/><path fill="#ffffff" d="M 62.085938 230.613281 C 62.335938 230.613281 62.574219 230.660156 62.804688 230.757812 C 63.035156 230.851562 63.238281 230.988281 63.414062 231.164062 C 63.589844 231.339844 63.722656 231.539062 63.820312 231.769531 C 63.914062 232 63.960938 232.238281 63.960938 232.488281 L 63.960938 243.738281 C 63.960938 243.988281 63.914062 244.226562 63.820312 244.457031 C 63.722656 244.683594 63.589844 244.886719 63.414062 245.0625 C 63.238281 245.238281 63.035156 245.375 62.804688 245.46875 C 62.574219 245.566406 62.335938 245.613281 62.085938 245.613281 C 61.835938 245.613281 61.597656 245.566406 61.367188 245.46875 C 61.136719 245.375 60.933594 245.238281 60.757812 245.0625 C 60.582031 244.886719 60.445312 244.683594 60.351562 244.457031 C 60.253906 244.226562 60.207031 243.988281 60.207031 243.738281 L 60.207031 232.488281 C 60.207031 232.238281 60.253906 232 60.351562 231.769531 C 60.445312 231.539062 60.582031 231.339844 60.757812 231.164062 C 60.933594 230.988281 61.136719 230.851562 61.367188 230.757812 C 61.597656 230.660156 61.835938 230.613281 62.085938 230.613281 Z M 62.085938 230.613281 " fill-opacity="1" fill-rule="nonzero"/><path fill="#ffffff" d="M 314.84375 230.613281 C 315.089844 230.613281 315.332031 230.660156 315.558594 230.757812 C 315.789062 230.851562 315.992188 230.988281 316.167969 231.164062 C 316.34375 231.339844 316.480469 231.539062 316.578125 231.769531 C 316.671875 232 316.71875 232.238281 316.71875 232.488281 L 316.71875 243.738281 C 316.71875 243.988281 316.671875 244.226562 316.578125 244.457031 C 316.480469 244.683594 316.34375 244.886719 316.167969 245.0625 C 315.992188 245.238281 315.789062 245.375 315.558594 245.46875 C 315.332031 245.566406 315.089844 245.613281 314.84375 245.613281 C 314.59375 245.613281 314.351562 245.566406 314.125 245.46875 C 313.894531 245.375 313.691406 245.238281 313.515625 245.0625 C 313.339844 244.886719 313.203125 244.683594 313.105469 244.457031 C 313.011719 244.226562 312.964844 243.988281 312.964844 243.738281 L 312.964844 232.488281 C 312.964844 232.238281 313.011719 232 313.105469 231.769531 C 313.203125 231.539062 313.339844 231.339844 313.515625 231.164062 C 313.691406 230.988281 313.894531 230.851562 314.125 230.757812 C 314.351562 230.660156 314.59375 230.613281 314.84375 230.613281 Z M 314.84375 230.613281 " fill-opacity="1" fill-rule="nonzero"/><g fill="#ffffff" fill-opacity="1"><g transform="translate(111.653251, 297.631603)"><g><path d="M 8.300781 -15.21875 L 5.785156 -15.21875 L 1.257812 -2.679688 C 0.933594 -1.785156 0.445312 -0.75 0 0 L 2.660156 0 C 2.007812 -1.097656 1.828125 -1.929688 2.089844 -2.679688 C 2.457031 -3.671875 2.820312 -4.484375 3.773438 -5.03125 C 5.175781 -5.863281 7.347656 -5.84375 8.765625 -4.972656 C 9.597656 -4.445312 9.984375 -3.671875 10.351562 -2.636719 C 10.675781 -1.765625 11.019531 -0.710938 11.019531 0 L 14.105469 0 C 13.65625 -0.75 13.152344 -1.785156 12.824219 -2.679688 Z M 9.292969 -5.582031 C 7.507812 -6.71875 4.910156 -6.71875 3.144531 -5.582031 L 6.210938 -14.042969 Z M 9.292969 -5.582031 "/></g></g></g><g fill="#ffffff" fill-opacity="1"><g transform="translate(127.438202, 297.631603)"><g><path d="M 2.679688 0 C 2.375 -0.769531 2.3125 -1.460938 2.3125 -2.476562 L 2.3125 -12.746094 C 2.3125 -13.757812 2.375 -14.449219 2.679688 -15.21875 C 1.785156 -15.21875 0.894531 -15.21875 0 -15.21875 C 0.285156 -14.449219 0.367188 -13.757812 0.367188 -12.746094 L 0.367188 -2.636719 C 0.367188 -1.664062 0.386719 -0.871094 0.730469 0 Z M 2.679688 0 "/></g></g></g><g fill="#ffffff" fill-opacity="1"><g transform="translate(131.820654, 297.631603)"><g><path d="M 4.222656 -1.644531 C 3.429688 -2.152344 4.121094 -2.882812 5.417969 -3.207031 C 6.089844 -3.390625 6.859375 -3.492188 7.527344 -3.714844 C 9.699219 -4.445312 9.984375 -6.796875 8.605469 -8.382812 C 7.753906 -9.355469 6.394531 -9.945312 4.972656 -9.945312 C 2.230469 -9.945312 0 -7.710938 0 -4.972656 C 0 -2.230469 2.230469 0 4.972656 0 C 6.921875 0 8.625 -1.117188 9.4375 -2.761719 L 9.050781 -3.289062 C 8.28125 -1.5 5.945312 -0.546875 4.222656 -1.644531 Z M 3.125 -2.457031 C 2.839844 -2.738281 2.597656 -3.0625 2.375 -3.449219 C 1.175781 -5.480469 1.359375 -7.8125 2.800781 -8.644531 C 3.328125 -8.949219 3.917969 -9.011719 4.484375 -8.929688 C 5.742188 -8.707031 7.042969 -7.710938 7.40625 -6.472656 C 7.652344 -5.640625 7.425781 -4.789062 6.472656 -4.382812 C 5.335938 -3.917969 3.734375 -3.695312 3.125 -2.457031 Z M 3.125 -2.457031 "/></g></g></g><g fill="#ffffff" fill-opacity="1"><g transform="translate(143.020264, 297.631603)"><g><path d="M 2.902344 -2.007812 C 3.367188 -2.617188 3.855469 -3.246094 4.324219 -3.875 L 6.046875 -1.296875 C 6.292969 -0.914062 6.859375 0 7.285156 0 L 9.539062 0 C 9.152344 -0.324219 8.707031 -0.8125 8.441406 -1.21875 L 5.582031 -5.5 C 6.414062 -6.574219 7.226562 -7.628906 8.058594 -8.707031 C 8.460938 -9.234375 8.949219 -9.597656 9.539062 -9.945312 L 6.859375 -9.945312 C 6.980469 -9.496094 7.285156 -8.765625 6.636719 -7.933594 L 5.195312 -6.089844 L 3.492188 -8.664062 C 3.246094 -9.03125 2.679688 -9.945312 2.253906 -9.945312 L 0 -9.945312 C 0.386719 -9.621094 0.832031 -9.132812 1.097656 -8.726562 L 3.9375 -4.445312 C 3.125 -3.367188 2.3125 -2.3125 1.480469 -1.238281 C 1.074219 -0.710938 0.566406 -0.367188 0 0 L 2.679688 0 C 2.535156 -0.527344 2.253906 -1.175781 2.902344 -2.007812 Z M 2.902344 -2.007812 "/></g></g></g><g fill="#ffffff" fill-opacity="1"><g transform="translate(154.301032, 297.631603)"><g><path d="M 2.3125 -2.476562 C 2.3125 -4.140625 2.3125 -5.804688 2.3125 -7.46875 C 2.3125 -8.503906 2.375 -9.191406 2.679688 -9.945312 C 1.785156 -9.945312 0.894531 -9.945312 0 -9.945312 C 0.285156 -9.191406 0.367188 -8.503906 0.367188 -7.46875 C 0.367188 -5.804688 0.367188 -4.140625 0.367188 -2.476562 C 0.367188 -1.460938 0.285156 -0.769531 0 0 C 0.894531 0 1.785156 0 2.679688 0 C 2.375 -0.769531 2.3125 -1.460938 2.3125 -2.476562 Z M 1.339844 -12.582031 C 0.792969 -12.582031 0.367188 -12.15625 0.367188 -11.609375 C 0.367188 -11.058594 0.792969 -10.632812 1.339844 -10.632812 C 1.867188 -10.632812 2.3125 -11.058594 2.3125 -11.609375 C 2.3125 -12.15625 1.867188 -12.582031 1.339844 -12.582031 Z M 1.339844 -12.582031 "/></g></g></g><g fill="#ffffff" fill-opacity="1"><g transform="translate(158.683483, 297.631603)"><g><path d="M 0 -7.285156 C 0.0390625 -4.972656 4.402344 -4.28125 6.59375 -3.105469 C 7.875 -2.414062 8.542969 -1.257812 6.59375 -0.8125 C 6.007812 -0.667969 5.335938 -0.691406 4.890625 -0.769531 C 3.613281 -0.996094 2.394531 -1.726562 1.398438 -2.535156 L 0 -0.589844 C 1.339844 -0.285156 3.367188 0 5.175781 0 C 7.628906 0 9.089844 -1.199219 9.070312 -2.660156 C 9.03125 -5.15625 3.976562 -5.761719 1.988281 -7.125 C 0.871094 -7.894531 1.015625 -8.808594 2.457031 -9.132812 C 3.042969 -9.273438 3.714844 -9.253906 4.179688 -9.171875 C 5.460938 -8.949219 6.675781 -8.21875 7.671875 -7.40625 L 9.070312 -9.355469 C 7.730469 -9.660156 5.683594 -9.945312 3.894531 -9.945312 C 1.441406 -9.945312 -0.0195312 -8.746094 0 -7.285156 Z M 0 -7.285156 "/></g></g></g><g fill="#ffffff" fill-opacity="1"><g transform="translate(169.517888, 297.631603)"><g/></g></g><g fill="#ffffff" fill-opacity="1"><g transform="translate(176.517636, 297.631603)"><g><path d="M 2.679688 0 C 1.441406 -0.710938 1.15625 -2.332031 1.15625 -3.632812 L 1.15625 -13.128906 L 6.472656 -2.839844 L 7.367188 -2.839844 L 12.886719 -13.496094 L 12.886719 -2.699219 C 12.886719 -1.664062 12.824219 -0.769531 12.519531 0 L 15.605469 0 C 15.300781 -0.769531 15.242188 -1.664062 15.242188 -2.699219 C 15.242188 -4.363281 15.242188 -10.855469 15.242188 -12.519531 C 15.242188 -13.554688 15.300781 -14.449219 15.605469 -15.21875 L 12.886719 -15.21875 L 7.792969 -5.398438 L 2.71875 -15.21875 L 0.0820312 -15.21875 L 0.367188 -14.652344 L 0.367188 -2.699219 C 0.367188 -1.664062 0.285156 -0.769531 0 0 Z M 2.679688 0 "/></g></g></g><g fill="#ffffff" fill-opacity="1"><g transform="translate(193.803981, 297.631603)"><g><path d="M 9.050781 -2.476562 C 9.050781 -3.550781 9.050781 -5.84375 9.050781 -7.203125 C 9.050781 -9.660156 7.164062 -9.945312 5.175781 -9.945312 C 3.367188 -9.945312 1.339844 -9.660156 0 -9.355469 L 1.398438 -7.40625 C 2.558594 -8.359375 4.058594 -9.214844 5.601562 -9.234375 C 7.773438 -9.273438 7.488281 -6.574219 5.480469 -6.066406 C 4.726562 -5.886719 3.917969 -6.046875 3.125 -6.066406 C 1.277344 -6.109375 0 -4.929688 0 -3.042969 C 0 -1.054688 1.421875 0 3.023438 0 C 4.707031 0 6.554688 -1.175781 7.101562 -3.570312 L 7.101562 -2.679688 C 7.101562 -1.683594 7.125 -0.871094 7.46875 0 L 9.417969 0 C 9.132812 -0.769531 9.050781 -1.460938 9.050781 -2.476562 Z M 3.773438 -1.074219 C 1.523438 -1.015625 1.074219 -4.769531 4.097656 -5.195312 C 5.15625 -5.335938 6.574219 -5.378906 7.101562 -6.414062 C 6.921875 -4.585938 6.167969 -1.136719 3.773438 -1.074219 Z M 3.773438 -1.074219 "/></g></g></g><g fill="#ffffff" fill-opacity="1"><g transform="translate(204.922433, 297.631603)"><g><path d="M 0 -9.945312 C 0.304688 -9.191406 0.367188 -8.503906 0.367188 -7.46875 L 0.367188 -2.476562 C 0.367188 -1.460938 0.304688 -0.769531 0 0 C 0.894531 0 1.785156 0 2.679688 0 C 2.394531 -0.769531 2.3125 -1.460938 2.3125 -2.476562 L 2.3125 -7.324219 C 2.3125 -7.367188 2.3125 -7.425781 2.3125 -7.488281 C 3.59375 -8.359375 5.15625 -8.605469 6.839844 -7.996094 L 6.839844 -9.945312 C 5.257812 -9.945312 3.59375 -9.03125 2.3125 -8.238281 C 2.273438 -8.828125 2.191406 -9.375 1.96875 -9.945312 Z M 0 -9.945312 "/></g></g></g><g fill="#ffffff" fill-opacity="1"><g transform="translate(213.464161, 297.631603)"><g><path d="M 0 -9.945312 L 0 -9.234375 L 1.21875 -9.234375 L 1.21875 -2.636719 C 1.21875 -0.710938 1.96875 0 2.941406 0 C 3.835938 0 4.851562 -0.589844 5.804688 -1.480469 L 5.417969 -1.988281 C 4.527344 -0.996094 3.164062 -0.566406 3.164062 -2.476562 L 3.164062 -9.234375 L 5.417969 -9.234375 L 5.417969 -9.945312 L 3.164062 -9.945312 L 3.164062 -12.582031 L 2.476562 -12.582031 C 2.273438 -11.261719 1.238281 -9.945312 0 -9.945312 Z M 0 -9.945312 "/></g></g></g><g fill="#ffffff" fill-opacity="1"><g transform="translate(220.991431, 297.631603)"><g><path d="M 2.3125 -2.476562 C 2.3125 -4.140625 2.3125 -5.804688 2.3125 -7.46875 C 2.3125 -8.503906 2.375 -9.191406 2.679688 -9.945312 C 1.785156 -9.945312 0.894531 -9.945312 0 -9.945312 C 0.285156 -9.191406 0.367188 -8.503906 0.367188 -7.46875 C 0.367188 -5.804688 0.367188 -4.140625 0.367188 -2.476562 C 0.367188 -1.460938 0.285156 -0.769531 0 0 C 0.894531 0 1.785156 0 2.679688 0 C 2.375 -0.769531 2.3125 -1.460938 2.3125 -2.476562 Z M 1.339844 -12.582031 C 0.792969 -12.582031 0.367188 -12.15625 0.367188 -11.609375 C 0.367188 -11.058594 0.792969 -10.632812 1.339844 -10.632812 C 1.867188 -10.632812 2.3125 -11.058594 2.3125 -11.609375 C 2.3125 -12.15625 1.867188 -12.582031 1.339844 -12.582031 Z M 1.339844 -12.582031 "/></g></g></g><g fill="#ffffff" fill-opacity="1"><g transform="translate(225.373883, 297.631603)"><g><path d="M 0 -9.945312 C 0.285156 -9.191406 0.367188 -8.503906 0.367188 -7.46875 L 0.367188 -2.476562 C 0.367188 -1.460938 0.285156 -0.769531 0 0 C 0.894531 0 1.785156 0 2.679688 0 C 2.375 -0.769531 2.3125 -1.460938 2.3125 -2.476562 L 2.3125 -7.324219 C 2.3125 -7.367188 2.3125 -7.425781 2.3125 -7.488281 C 2.964844 -7.855469 3.917969 -8.339844 4.769531 -8.625 C 6.269531 -9.113281 7.46875 -8.949219 7.46875 -7 L 7.46875 -2.476562 C 7.46875 -1.460938 7.386719 -0.769531 7.101562 0 C 7.996094 0 8.890625 0 9.78125 0 C 9.496094 -0.769531 9.417969 -1.460938 9.417969 -2.476562 C 9.417969 -3.9375 9.417969 -5.863281 9.417969 -7.40625 C 9.417969 -9.089844 8.503906 -9.945312 6.839844 -9.945312 C 5.234375 -9.945312 3.570312 -9.03125 2.292969 -8.238281 C 2.273438 -8.828125 2.171875 -9.375 1.949219 -9.945312 Z M 0 -9.945312 "/></g></g></g><g fill="#ffffff" fill-opacity="1"><g transform="translate(236.85754, 297.631603)"><g><path d="M 4.222656 -1.644531 C 3.429688 -2.152344 4.121094 -2.882812 5.417969 -3.207031 C 6.089844 -3.390625 6.859375 -3.492188 7.527344 -3.714844 C 9.699219 -4.445312 9.984375 -6.796875 8.605469 -8.382812 C 7.753906 -9.355469 6.394531 -9.945312 4.972656 -9.945312 C 2.230469 -9.945312 0 -7.710938 0 -4.972656 C 0 -2.230469 2.230469 0 4.972656 0 C 6.921875 0 8.625 -1.117188 9.4375 -2.761719 L 9.050781 -3.289062 C 8.28125 -1.5 5.945312 -0.546875 4.222656 -1.644531 Z M 3.125 -2.457031 C 2.839844 -2.738281 2.597656 -3.0625 2.375 -3.449219 C 1.175781 -5.480469 1.359375 -7.8125 2.800781 -8.644531 C 3.328125 -8.949219 3.917969 -9.011719 4.484375 -8.929688 C 5.742188 -8.707031 7.042969 -7.710938 7.40625 -6.472656 C 7.652344 -5.640625 7.425781 -4.789062 6.472656 -4.382812 C 5.335938 -3.917969 3.734375 -3.695312 3.125 -2.457031 Z M 3.125 -2.457031 "/></g></g></g><g fill="#ffffff" fill-opacity="1"><g transform="translate(248.05715, 297.631603)"><g><path d="M 8.929688 -9.945312 C 5.90625 -9.945312 3.328125 -9.945312 0.304688 -9.945312 L 0.304688 -7.996094 C 0.953125 -8.664062 2.050781 -9.234375 3.003906 -9.234375 L 6.089844 -9.234375 L -0.121094 0 C 2.902344 0 5.480469 0 8.503906 0 L 8.503906 -1.949219 C 7.875 -1.277344 6.757812 -0.710938 5.824219 -0.710938 L 2.699219 -0.710938 Z M 8.929688 -9.945312 "/></g></g></g><g fill="#ffffff" fill-opacity="1"><g transform="translate(69.219702, 269.229317)"><g><path d="M 0 0 L 10.054688 0 C 15.496094 0 18.382812 -2.789062 18.382812 -6.46875 C 18.382812 -10.054688 15.960938 -12.410156 12.375 -13.007812 C 15.230469 -14.433594 17.917969 -16.027344 17.917969 -19.609375 C 17.917969 -22.429688 15.328125 -24.886719 10.054688 -24.886719 L 0 -24.886719 C 0.464844 -23.625 0.597656 -22.164062 0.597656 -20.472656 C 0.597656 -17.75 0.597656 -7.132812 0.597656 -4.414062 C 0.597656 -2.722656 0.464844 -1.261719 0 0 Z M 11.183594 -12.441406 C 13.238281 -11.613281 14.566406 -9.15625 14.53125 -6.835938 C 14.53125 -3.78125 12.308594 -1.160156 7.300781 -1.160156 L 4.414062 -1.160156 L 4.414062 -5.871094 C 4.414062 -9.457031 8.261719 -10.984375 11.183594 -12.441406 Z M 4.414062 -23.722656 L 7.265625 -23.722656 C 11.84375 -23.722656 14.066406 -21.933594 14.066406 -19.609375 C 14.066406 -13.902344 7 -13.605469 4.414062 -9.125 Z M 4.414062 -23.722656 "/></g></g></g><g fill="#ffffff" fill-opacity="1"><g transform="translate(90.340745, 269.229317)"><g><path d="M 13.570312 -24.886719 L 9.457031 -24.886719 L 2.058594 -4.378906 C 1.527344 -2.917969 0.730469 -1.226562 0 0 L 4.347656 0 C 3.285156 -1.792969 2.984375 -3.152344 3.417969 -4.378906 C 4.015625 -6.003906 4.613281 -7.332031 6.171875 -8.230469 C 8.460938 -9.589844 12.011719 -9.554688 14.332031 -8.128906 C 15.695312 -7.265625 16.324219 -6.003906 16.921875 -4.3125 C 17.453125 -2.886719 18.015625 -1.160156 18.015625 0 L 23.058594 0 C 22.332031 -1.226562 21.5 -2.917969 20.96875 -4.378906 Z M 15.195312 -9.125 C 12.277344 -10.984375 8.03125 -10.984375 5.144531 -9.125 L 10.152344 -22.960938 Z M 15.195312 -9.125 "/></g></g></g><g fill="#ffffff" fill-opacity="1"><g transform="translate(116.136939, 269.229317)"><g><path d="M 9.820312 -24.886719 L 0 -24.886719 C 0.464844 -23.625 0.597656 -22.164062 0.597656 -20.472656 C 0.597656 -17.75 0.597656 -7.132812 0.597656 -4.414062 C 0.597656 -2.722656 0.464844 -1.261719 0 0 C 1.460938 0 3.550781 0 5.011719 0 C 4.546875 -1.261719 4.414062 -2.722656 4.414062 -4.414062 L 4.414062 -5.109375 C 4.414062 -7.765625 5.90625 -9.355469 7.898438 -10.617188 L 11.976562 -2.953125 C 12.507812 -1.992188 12.875 -1.0625 13.105469 0 L 18.382812 0 C 17.550781 -1.0625 16.359375 -2.953125 15.5625 -4.414062 L 11.28125 -12.410156 C 14.632812 -14.035156 17.917969 -15.695312 17.917969 -19.609375 C 17.917969 -22.496094 15.363281 -24.886719 9.820312 -24.886719 Z M 4.414062 -9.089844 L 4.414062 -23.722656 L 6.402344 -23.722656 C 10.386719 -23.722656 13.96875 -22.828125 14.066406 -19.773438 C 14.265625 -14.664062 7.199219 -13.804688 4.414062 -9.089844 Z M 4.414062 -9.089844 "/></g></g></g><g fill="#ffffff" fill-opacity="1"><g transform="translate(137.257982, 269.229317)"><g><path d="M 0 0 L 10.054688 0 C 15.496094 0 18.382812 -2.789062 18.382812 -6.46875 C 18.382812 -10.054688 15.960938 -12.410156 12.375 -13.007812 C 15.230469 -14.433594 17.917969 -16.027344 17.917969 -19.609375 C 17.917969 -22.429688 15.328125 -24.886719 10.054688 -24.886719 L 0 -24.886719 C 0.464844 -23.625 0.597656 -22.164062 0.597656 -20.472656 C 0.597656 -17.75 0.597656 -7.132812 0.597656 -4.414062 C 0.597656 -2.722656 0.464844 -1.261719 0 0 Z M 11.183594 -12.441406 C 13.238281 -11.613281 14.566406 -9.15625 14.53125 -6.835938 C 14.53125 -3.78125 12.308594 -1.160156 7.300781 -1.160156 L 4.414062 -1.160156 L 4.414062 -5.871094 C 4.414062 -9.457031 8.261719 -10.984375 11.183594 -12.441406 Z M 4.414062 -23.722656 L 7.265625 -23.722656 C 11.84375 -23.722656 14.066406 -21.933594 14.066406 -19.609375 C 14.066406 -13.902344 7 -13.605469 4.414062 -9.125 Z M 4.414062 -23.722656 "/></g></g></g><g fill="#ffffff" fill-opacity="1"><g transform="translate(158.379025, 269.229317)"><g><path d="M 17.285156 0 L 17.519531 -3.78125 L 17.21875 -3.78125 C 16.953125 -3.085938 15.828125 -1.292969 12.839844 -1.292969 L 4.414062 -1.292969 L 4.414062 -10.75 L 8.0625 -10.75 C 11.050781 -10.75 12.175781 -8.957031 12.441406 -8.261719 L 12.742188 -8.261719 C 12.742188 -10.351562 12.742188 -12.441406 12.742188 -14.53125 L 12.441406 -14.53125 C 12.175781 -13.835938 11.050781 -12.042969 8.0625 -12.042969 L 4.414062 -12.042969 L 4.414062 -23.589844 L 11.910156 -23.589844 C 14.898438 -23.589844 15.992188 -21.800781 16.292969 -21.101562 L 16.558594 -21.101562 L 16.324219 -24.886719 L 0 -24.886719 C 0.464844 -23.625 0.597656 -22.164062 0.597656 -20.472656 C 0.597656 -17.75 0.597656 -7.132812 0.597656 -4.414062 C 0.597656 -2.722656 0.464844 -1.261719 0 0 Z M 17.285156 0 "/></g></g></g><g fill="#ffffff" fill-opacity="1"><g transform="translate(178.671153, 269.229317)"><g><path d="M 9.820312 -24.886719 L 0 -24.886719 C 0.464844 -23.625 0.597656 -22.164062 0.597656 -20.472656 C 0.597656 -17.75 0.597656 -7.132812 0.597656 -4.414062 C 0.597656 -2.722656 0.464844 -1.261719 0 0 C 1.460938 0 3.550781 0 5.011719 0 C 4.546875 -1.261719 4.414062 -2.722656 4.414062 -4.414062 L 4.414062 -5.109375 C 4.414062 -7.765625 5.90625 -9.355469 7.898438 -10.617188 L 11.976562 -2.953125 C 12.507812 -1.992188 12.875 -1.0625 13.105469 0 L 18.382812 0 C 17.550781 -1.0625 16.359375 -2.953125 15.5625 -4.414062 L 11.28125 -12.410156 C 14.632812 -14.035156 17.917969 -15.695312 17.917969 -19.609375 C 17.917969 -22.496094 15.363281 -24.886719 9.820312 -24.886719 Z M 4.414062 -9.089844 L 4.414062 -23.722656 L 6.402344 -23.722656 C 10.386719 -23.722656 13.96875 -22.828125 14.066406 -19.773438 C 14.265625 -14.664062 7.199219 -13.804688 4.414062 -9.089844 Z M 4.414062 -9.089844 "/></g></g></g><g fill="#ffffff" fill-opacity="1"><g transform="translate(199.792196, 269.229317)"><g/></g></g><g fill="#ffffff" fill-opacity="1"><g transform="translate(211.231373, 269.229317)"><g><path d="M 17.550781 -18.082031 L 17.851562 -18.082031 L 17.851562 -22.859375 C 17.484375 -22.695312 17.152344 -22.960938 16.757812 -23.226562 C 14.832031 -24.621094 12.308594 -25.347656 9.488281 -25.347656 C 7.234375 -25.347656 4.746094 -24.785156 3.050781 -23.390625 C -0.0976562 -20.769531 0.597656 -16.09375 4.082031 -14.132812 C 6.335938 -12.90625 8.992188 -12.375 11.414062 -11.414062 C 13.605469 -10.519531 15.894531 -9.125 15.894531 -6.4375 C 15.894531 -3.484375 13.570312 -0.894531 9.886719 -0.894531 C 7.929688 -0.894531 6.171875 -1.359375 4.578125 -2.457031 C 1.328125 -4.710938 0.960938 -7.167969 0.960938 -10.882812 L 0.664062 -10.882812 L 0 -3.050781 C 0.464844 -3.183594 0.929688 -2.851562 1.195312 -2.621094 C 3.449219 -0.664062 7.132812 0.464844 9.753906 0.464844 C 12.210938 0.464844 14.832031 -0.230469 16.820312 -1.757812 C 20.804688 -4.8125 21.003906 -10.320312 16.722656 -13.207031 C 13.9375 -15.097656 9.886719 -15.894531 7.035156 -17.121094 C 5.078125 -17.984375 4.644531 -19.972656 5.242188 -21.46875 C 6.070312 -23.390625 8.59375 -24.054688 10.1875 -24.023438 C 14.199219 -24.023438 17.386719 -22.164062 17.550781 -18.082031 Z M 17.550781 -18.082031 "/></g></g></g><g fill="#ffffff" fill-opacity="1"><g transform="translate(233.844488, 269.229317)"><g><path d="M 4.414062 -4.414062 L 4.414062 -10.75 L 15.496094 -10.75 L 15.496094 -4.414062 C 15.496094 -2.722656 15.363281 -1.261719 14.898438 0 L 19.90625 0 C 19.445312 -1.261719 19.3125 -2.722656 19.3125 -4.414062 C 19.3125 -7.132812 19.3125 -17.75 19.3125 -20.472656 C 19.3125 -22.164062 19.445312 -23.625 19.90625 -24.886719 L 14.898438 -24.886719 C 15.363281 -23.625 15.496094 -22.164062 15.496094 -20.472656 L 15.496094 -12.042969 L 4.414062 -12.042969 L 4.414062 -20.472656 C 4.414062 -22.164062 4.546875 -23.625 5.011719 -24.886719 L 0 -24.886719 C 0.464844 -23.625 0.597656 -22.164062 0.597656 -20.472656 C 0.597656 -17.75 0.597656 -7.132812 0.597656 -4.414062 C 0.597656 -2.722656 0.464844 -1.261719 0 0 L 5.011719 0 C 4.546875 -1.261719 4.414062 -2.722656 4.414062 -4.414062 Z M 4.414062 -4.414062 "/></g></g></g><g fill="#ffffff" fill-opacity="1"><g transform="translate(256.490755, 269.229317)"><g><path d="M 12.90625 -25.347656 C 5.773438 -25.347656 0 -19.578125 0 -12.441406 C 0 -5.308594 5.773438 0.464844 12.90625 0.464844 C 20.039062 0.464844 25.8125 -5.308594 25.8125 -12.441406 C 25.8125 -19.578125 20.039062 -25.347656 12.90625 -25.347656 Z M 18.480469 -2.324219 C 14.132812 0.0664062 8.164062 -2.554688 5.078125 -8.164062 C 1.992188 -13.738281 3.019531 -20.207031 7.332031 -22.59375 C 11.644531 -24.953125 17.652344 -22.332031 20.738281 -16.757812 C 23.789062 -11.148438 22.792969 -4.679688 18.480469 -2.324219 Z M 18.480469 -2.324219 "/></g></g></g><g fill="#ffffff" fill-opacity="1"><g transform="translate(285.105309, 269.229317)"><g><path d="M 9.820312 -24.886719 L 0 -24.886719 C 0.464844 -23.625 0.597656 -22.164062 0.597656 -20.472656 C 0.597656 -17.75 0.597656 -7.132812 0.597656 -4.414062 C 0.597656 -2.722656 0.464844 -1.261719 0 0 C 1.460938 0 3.550781 0 5.011719 0 C 4.546875 -1.261719 4.414062 -2.722656 4.414062 -4.414062 L 4.414062 -5.109375 C 4.414062 -13.074219 17.917969 -11.644531 17.917969 -19.609375 C 17.917969 -22.496094 15.363281 -24.886719 9.820312 -24.886719 Z M 4.414062 -9.089844 L 4.414062 -23.722656 L 6.402344 -23.722656 C 10.386719 -23.722656 13.96875 -22.828125 14.066406 -19.773438 C 14.265625 -14.664062 7.199219 -13.804688 4.414062 -9.089844 Z M 4.414062 -9.089844 "/></g></g></g></svg>