<svg xmlns="http://www.w3.org/2000/svg" xmlns:xlink="http://www.w3.org/1999/xlink" width="500" zoomAndPan="magnify" viewBox="0 0 375 374.999991" height="500" preserveAspectRatio="xMidYMid meet" version="1.0"><defs><g/><clipPath id="4ec8649968"><path d="M 30.492188 30 L 344.882812 30 L 344.882812 344.882812 L 30.492188 344.882812 Z M 30.492188 30 " clip-rule="nonzero"/></clipPath><clipPath id="2355ef7ab5"><path d="M 187.5 344.507812 C 145.582031 344.507812 106.109375 328.191406 76.492188 298.507812 C 46.808594 268.890625 30.492188 229.417969 30.492188 187.5 C 30.492188 145.582031 46.808594 106.109375 76.492188 76.492188 C 106.109375 46.808594 145.582031 30.492188 187.5 30.492188 C 229.417969 30.492188 268.890625 46.808594 298.507812 76.492188 C 328.191406 106.171875 344.507812 145.582031 344.507812 187.5 C 344.507812 229.417969 328.191406 268.890625 298.507812 298.507812 C 268.890625 328.191406 229.417969 344.507812 187.5 344.507812 Z M 187.5 39.90625 C 148.089844 39.90625 111.003906 55.28125 83.140625 83.140625 C 55.28125 111.003906 39.90625 148.089844 39.90625 187.5 C 39.90625 226.910156 55.28125 263.996094 83.140625 291.859375 C 111.003906 319.71875 148.089844 335.09375 187.5 335.09375 C 226.910156 335.09375 263.996094 319.71875 291.859375 291.859375 C 319.71875 263.996094 335.09375 226.910156 335.09375 187.5 C 335.09375 148.089844 319.71875 111.003906 291.859375 83.140625 C 263.996094 55.28125 226.910156 39.90625 187.5 39.90625 Z M 187.5 39.90625 " clip-rule="nonzero"/></clipPath><clipPath id="6da794c970"><path d="M 155 56.9375 L 229 56.9375 L 229 121 L 155 121 Z M 155 56.9375 " clip-rule="nonzero"/></clipPath><clipPath id="5ece5cc0fc"><path d="M 142 137 L 231 137 L 231 228.6875 L 142 228.6875 Z M 142 137 " clip-rule="nonzero"/></clipPath></defs><rect x="-37.5" width="450" fill="#ffffff" y="-37.499999" height="449.999989" fill-opacity="1"/><rect x="-37.5" width="450" fill="#ffffff" y="-37.499999" height="449.999989" fill-opacity="1"/><rect x="-37.5" width="450" fill="#ffffff" y="-37.499999" height="449.999989" fill-opacity="1"/><g clip-path="url(#4ec8649968)"><g clip-path="url(#2355ef7ab5)"><path fill="#000000" d="M 30.492188 30.492188 L 344.257812 30.492188 L 344.257812 344.257812 L 30.492188 344.257812 Z M 30.492188 30.492188 " fill-opacity="1" fill-rule="nonzero"/></g></g><path fill="#000000" d="M 159.316406 89.644531 L 174.398438 84.011719 C 162.707031 77.394531 150.851562 81.632812 150.851562 81.632812 C 140.742188 89.898438 144.730469 123.195312 144.730469 123.195312 C 144.730469 123.195312 154.941406 90.460938 159.316406 89.644531 " fill-opacity="1" fill-rule="nonzero"/><g clip-path="url(#6da794c970)"><path fill="#000000" d="M 209.199219 86.464844 C 219.671875 89.726562 227.332031 120.652344 227.332031 120.652344 C 227.332031 120.652344 232.132812 91.800781 223.519531 73.671875 C 226.550781 66.304688 225.984375 56.917969 225.984375 56.917969 C 223.984375 61.125 221.488281 63.59375 219.210938 65.046875 C 219.585938 61.164062 219.410156 58.222656 219.410156 58.222656 C 218.210938 60.75 216.828125 62.648438 215.425781 64.078125 C 200.398438 72.328125 167.445312 65.027344 156.210938 72.3125 C 150.808594 75.816406 174.71875 80.160156 176.433594 81.15625 C 185.253906 86.269531 201.777344 84.160156 209.199219 86.464844 " fill-opacity="1" fill-rule="nonzero"/></g><g clip-path="url(#5ece5cc0fc)"><path fill="#000000" d="M 198.488281 179.519531 L 197.867188 179.519531 C 195.40625 179.519531 193.007812 178.800781 190.964844 177.476562 C 189.691406 176.648438 188.21875 176.1875 186.703125 176.144531 L 186.613281 176.140625 L 186.613281 176.132812 C 186.507812 176.128906 186.402344 176.125 186.300781 176.125 L 186.183594 176.128906 C 184.667969 176.171875 183.195312 176.636719 181.921875 177.460938 C 179.878906 178.785156 177.480469 179.503906 175.019531 179.503906 L 174.398438 179.503906 L 170.167969 171.808594 C 170.167969 171.808594 182.667969 165.769531 186.34375 165.402344 C 189.90625 165.554688 202.71875 171.820312 202.71875 171.820312 Z M 208.347656 162.042969 C 203.679688 163.035156 196.5625 154.335938 190.011719 155.308594 C 188.910156 155.472656 187.023438 157.996094 186.449219 158.800781 C 185.882812 158.011719 183.980469 155.457031 182.875 155.292969 C 176.324219 154.320312 169.203125 163.023438 164.535156 162.027344 C 157.378906 160.503906 143.472656 137.65625 143.472656 137.65625 C 150.566406 179.503906 136.65625 195.769531 145.039062 204.566406 C 150.023438 209.789062 179.054688 228.648438 186.269531 228.648438 C 186.386719 228.65625 186.507812 228.664062 186.613281 228.664062 C 193.832031 228.664062 222.863281 209.804688 227.84375 204.578125 C 236.230469 195.78125 222.316406 179.519531 229.410156 137.667969 C 229.410156 137.667969 215.507812 160.519531 208.347656 162.042969 " fill-opacity="1" fill-rule="nonzero"/></g><path stroke-linecap="round" transform="matrix(0.750961, 0, 0, 0.75, 60.207905, 236.238193)" fill="none" stroke-linejoin="miter" d="M 4.997642 2.500117 L 336.578152 2.500117 " stroke="#000000" stroke-width="5" stroke-opacity="1" stroke-miterlimit="4"/><path fill="#000000" d="M 62.085938 230.613281 C 62.335938 230.613281 62.574219 230.660156 62.804688 230.757812 C 63.035156 230.851562 63.238281 230.988281 63.414062 231.164062 C 63.589844 231.339844 63.722656 231.539062 63.820312 231.769531 C 63.914062 232 63.960938 232.238281 63.960938 232.488281 L 63.960938 243.738281 C 63.960938 243.988281 63.914062 244.226562 63.820312 244.457031 C 63.722656 244.683594 63.589844 244.886719 63.414062 245.0625 C 63.238281 245.238281 63.035156 245.375 62.804688 245.46875 C 62.574219 245.566406 62.335938 245.613281 62.085938 245.613281 C 61.835938 245.613281 61.597656 245.566406 61.367188 245.46875 C 61.136719 245.375 60.933594 245.238281 60.757812 245.0625 C 60.582031 244.886719 60.445312 244.683594 60.351562 244.457031 C 60.253906 244.226562 60.207031 243.988281 60.207031 243.738281 L 60.207031 232.488281 C 60.207031 232.238281 60.253906 232 60.351562 231.769531 C 60.445312 231.539062 60.582031 231.339844 60.757812 231.164062 C 60.933594 230.988281 61.136719 230.851562 61.367188 230.757812 C 61.597656 230.660156 61.835938 230.613281 62.085938 230.613281 Z M 62.085938 230.613281 " fill-opacity="1" fill-rule="nonzero"/><path fill="#000000" d="M 314.839844 230.613281 C 315.089844 230.613281 315.332031 230.660156 315.558594 230.757812 C 315.789062 230.851562 315.992188 230.988281 316.167969 231.164062 C 316.34375 231.339844 316.480469 231.539062 316.578125 231.769531 C 316.671875 232 316.71875 232.238281 316.71875 232.488281 L 316.71875 243.738281 C 316.71875 243.988281 316.671875 244.226562 316.578125 244.457031 C 316.480469 244.683594 316.34375 244.886719 316.167969 245.0625 C 315.992188 245.238281 315.789062 245.375 315.558594 245.46875 C 315.332031 245.566406 315.089844 245.613281 314.839844 245.613281 C 314.59375 245.613281 314.351562 245.566406 314.125 245.46875 C 313.894531 245.375 313.691406 245.238281 313.515625 245.0625 C 313.339844 244.886719 313.203125 244.683594 313.105469 244.457031 C 313.011719 244.226562 312.964844 243.988281 312.964844 243.738281 L 312.964844 232.488281 C 312.964844 232.238281 313.011719 232 313.105469 231.769531 C 313.203125 231.539062 313.339844 231.339844 313.515625 231.164062 C 313.691406 230.988281 313.894531 230.851562 314.125 230.757812 C 314.351562 230.660156 314.59375 230.613281 314.839844 230.613281 Z M 314.839844 230.613281 " fill-opacity="1" fill-rule="nonzero"/><g fill="#000000" fill-opacity="1"><g transform="translate(111.671029, 297.962997)"><g><path d="M 8.300781 -15.222656 L 5.785156 -15.222656 L 1.257812 -2.679688 C 0.933594 -1.785156 0.445312 -0.75 0 0 L 2.660156 0 C 2.007812 -1.097656 1.828125 -1.929688 2.089844 -2.679688 C 2.457031 -3.671875 2.820312 -4.484375 3.773438 -5.03125 C 5.175781 -5.867188 7.347656 -5.84375 8.765625 -4.972656 C 9.597656 -4.445312 9.984375 -3.671875 10.351562 -2.636719 C 10.675781 -1.765625 11.019531 -0.710938 11.019531 0 L 14.105469 0 C 13.660156 -0.75 13.152344 -1.785156 12.828125 -2.679688 Z M 9.296875 -5.582031 C 7.507812 -6.71875 4.910156 -6.71875 3.144531 -5.582031 L 6.210938 -14.042969 Z M 9.296875 -5.582031 "/></g></g></g><g fill="#000000" fill-opacity="1"><g transform="translate(127.4529, 297.962997)"><g><path d="M 2.679688 0 C 2.375 -0.769531 2.3125 -1.460938 2.3125 -2.476562 L 2.3125 -12.746094 C 2.3125 -13.761719 2.375 -14.449219 2.679688 -15.222656 C 1.785156 -15.222656 0.894531 -15.222656 0 -15.222656 C 0.285156 -14.449219 0.367188 -13.761719 0.367188 -12.746094 L 0.367188 -2.636719 C 0.367188 -1.664062 0.386719 -0.871094 0.730469 0 Z M 2.679688 0 "/></g></g></g><g fill="#000000" fill-opacity="1"><g transform="translate(131.834499, 297.962997)"><g><path d="M 4.222656 -1.644531 C 3.429688 -2.152344 4.121094 -2.882812 5.417969 -3.207031 C 6.089844 -3.390625 6.859375 -3.492188 7.53125 -3.714844 C 9.699219 -4.445312 9.984375 -6.796875 8.605469 -8.382812 C 7.753906 -9.355469 6.394531 -9.945312 4.972656 -9.945312 C 2.234375 -9.945312 0 -7.710938 0 -4.972656 C 0 -2.234375 2.234375 0 4.972656 0 C 6.921875 0 8.625 -1.117188 9.4375 -2.761719 L 9.050781 -3.289062 C 8.28125 -1.5 5.945312 -0.546875 4.222656 -1.644531 Z M 3.125 -2.457031 C 2.839844 -2.738281 2.597656 -3.066406 2.375 -3.449219 C 1.175781 -5.480469 1.359375 -7.8125 2.800781 -8.644531 C 3.328125 -8.949219 3.917969 -9.011719 4.484375 -8.929688 C 5.742188 -8.707031 7.042969 -7.710938 7.40625 -6.472656 C 7.652344 -5.640625 7.429688 -4.789062 6.472656 -4.382812 C 5.335938 -3.917969 3.734375 -3.695312 3.125 -2.457031 Z M 3.125 -2.457031 "/></g></g></g><g fill="#000000" fill-opacity="1"><g transform="translate(143.031924, 297.962997)"><g><path d="M 2.902344 -2.007812 C 3.367188 -2.617188 3.855469 -3.246094 4.324219 -3.875 L 6.046875 -1.300781 C 6.292969 -0.914062 6.859375 0 7.285156 0 L 9.539062 0 C 9.152344 -0.324219 8.707031 -0.8125 8.441406 -1.21875 L 5.582031 -5.5 C 6.414062 -6.574219 7.226562 -7.632812 8.058594 -8.707031 C 8.464844 -9.234375 8.949219 -9.597656 9.539062 -9.945312 L 6.859375 -9.945312 C 6.980469 -9.5 7.285156 -8.765625 6.636719 -7.933594 L 5.195312 -6.089844 L 3.492188 -8.664062 C 3.246094 -9.03125 2.679688 -9.945312 2.253906 -9.945312 L 0 -9.945312 C 0.386719 -9.621094 0.832031 -9.132812 1.097656 -8.726562 L 3.9375 -4.445312 C 3.125 -3.367188 2.3125 -2.3125 1.480469 -1.238281 C 1.074219 -0.710938 0.566406 -0.367188 0 0 L 2.679688 0 C 2.535156 -0.527344 2.253906 -1.175781 2.902344 -2.007812 Z M 2.902344 -2.007812 "/></g></g></g><g fill="#000000" fill-opacity="1"><g transform="translate(154.310488, 297.962997)"><g><path d="M 2.3125 -2.476562 C 2.3125 -4.140625 2.3125 -5.804688 2.3125 -7.46875 C 2.3125 -8.503906 2.375 -9.195312 2.679688 -9.945312 C 1.785156 -9.945312 0.894531 -9.945312 0 -9.945312 C 0.285156 -9.195312 0.367188 -8.503906 0.367188 -7.46875 C 0.367188 -5.804688 0.367188 -4.140625 0.367188 -2.476562 C 0.367188 -1.460938 0.285156 -0.769531 0 0 C 0.894531 0 1.785156 0 2.679688 0 C 2.375 -0.769531 2.3125 -1.460938 2.3125 -2.476562 Z M 1.339844 -12.582031 C 0.792969 -12.582031 0.367188 -12.15625 0.367188 -11.609375 C 0.367188 -11.0625 0.792969 -10.632812 1.339844 -10.632812 C 1.867188 -10.632812 2.3125 -11.0625 2.3125 -11.609375 C 2.3125 -12.15625 1.867188 -12.582031 1.339844 -12.582031 Z M 1.339844 -12.582031 "/></g></g></g><g fill="#000000" fill-opacity="1"><g transform="translate(158.692087, 297.962997)"><g><path d="M 0 -7.285156 C 0.0390625 -4.972656 4.402344 -4.28125 6.597656 -3.105469 C 7.875 -2.414062 8.542969 -1.257812 6.597656 -0.8125 C 6.007812 -0.667969 5.335938 -0.691406 4.890625 -0.769531 C 3.613281 -0.996094 2.394531 -1.726562 1.398438 -2.535156 L 0 -0.589844 C 1.339844 -0.285156 3.367188 0 5.175781 0 C 7.632812 0 9.09375 -1.199219 9.070312 -2.660156 C 9.03125 -5.15625 3.976562 -5.765625 1.988281 -7.125 C 0.871094 -7.894531 1.015625 -8.808594 2.457031 -9.132812 C 3.042969 -9.273438 3.714844 -9.253906 4.179688 -9.171875 C 5.460938 -8.949219 6.675781 -8.21875 7.671875 -7.40625 L 9.070312 -9.355469 C 7.730469 -9.660156 5.683594 -9.945312 3.898438 -9.945312 C 1.441406 -9.945312 -0.0195312 -8.746094 0 -7.285156 Z M 0 -7.285156 "/></g></g></g><g fill="#000000" fill-opacity="1"><g transform="translate(169.524377, 297.962997)"><g/></g></g><g fill="#000000" fill-opacity="1"><g transform="translate(176.52277, 297.962997)"><g><path d="M 2.679688 0 C 1.441406 -0.710938 1.15625 -2.332031 1.15625 -3.632812 L 1.15625 -13.132812 L 6.472656 -2.839844 L 7.367188 -2.839844 L 12.886719 -13.496094 L 12.886719 -2.699219 C 12.886719 -1.664062 12.828125 -0.769531 12.523438 0 L 15.605469 0 C 15.300781 -0.769531 15.242188 -1.664062 15.242188 -2.699219 C 15.242188 -4.363281 15.242188 -10.859375 15.242188 -12.523438 C 15.242188 -13.558594 15.300781 -14.449219 15.605469 -15.222656 L 12.886719 -15.222656 L 7.792969 -5.398438 L 2.71875 -15.222656 L 0.0820312 -15.222656 L 0.367188 -14.652344 L 0.367188 -2.699219 C 0.367188 -1.664062 0.285156 -0.769531 0 0 Z M 2.679688 0 "/></g></g></g><g fill="#000000" fill-opacity="1"><g transform="translate(193.805751, 297.962997)"><g><path d="M 9.050781 -2.476562 C 9.050781 -3.550781 9.050781 -5.84375 9.050781 -7.203125 C 9.050781 -9.660156 7.164062 -9.945312 5.175781 -9.945312 C 3.367188 -9.945312 1.339844 -9.660156 0 -9.355469 L 1.398438 -7.40625 C 2.558594 -8.363281 4.058594 -9.214844 5.601562 -9.234375 C 7.773438 -9.273438 7.488281 -6.574219 5.480469 -6.066406 C 4.730469 -5.886719 3.917969 -6.046875 3.125 -6.066406 C 1.277344 -6.109375 0 -4.933594 0 -3.042969 C 0 -1.054688 1.421875 0 3.023438 0 C 4.707031 0 6.554688 -1.175781 7.101562 -3.570312 L 7.101562 -2.679688 C 7.101562 -1.683594 7.125 -0.871094 7.46875 0 L 9.417969 0 C 9.132812 -0.769531 9.050781 -1.460938 9.050781 -2.476562 Z M 3.773438 -1.074219 C 1.523438 -1.015625 1.074219 -4.769531 4.097656 -5.195312 C 5.15625 -5.335938 6.574219 -5.378906 7.101562 -6.414062 C 6.921875 -4.585938 6.167969 -1.136719 3.773438 -1.074219 Z M 3.773438 -1.074219 "/></g></g></g><g fill="#000000" fill-opacity="1"><g transform="translate(204.922038, 297.962997)"><g><path d="M 0 -9.945312 C 0.304688 -9.195312 0.367188 -8.503906 0.367188 -7.46875 L 0.367188 -2.476562 C 0.367188 -1.460938 0.304688 -0.769531 0 0 C 0.894531 0 1.785156 0 2.679688 0 C 2.394531 -0.769531 2.3125 -1.460938 2.3125 -2.476562 L 2.3125 -7.328125 C 2.3125 -7.367188 2.3125 -7.429688 2.3125 -7.488281 C 3.59375 -8.363281 5.15625 -8.605469 6.839844 -7.996094 L 6.839844 -9.945312 C 5.257812 -9.945312 3.59375 -9.03125 2.3125 -8.238281 C 2.273438 -8.828125 2.191406 -9.375 1.96875 -9.945312 Z M 0 -9.945312 "/></g></g></g><g fill="#000000" fill-opacity="1"><g transform="translate(213.462099, 297.962997)"><g><path d="M 0 -9.945312 L 0 -9.234375 L 1.21875 -9.234375 L 1.21875 -2.636719 C 1.21875 -0.710938 1.96875 0 2.941406 0 C 3.835938 0 4.851562 -0.589844 5.804688 -1.480469 L 5.417969 -1.988281 C 4.527344 -0.996094 3.167969 -0.566406 3.167969 -2.476562 L 3.167969 -9.234375 L 5.417969 -9.234375 L 5.417969 -9.945312 L 3.167969 -9.945312 L 3.167969 -12.582031 L 2.476562 -12.582031 C 2.273438 -11.265625 1.238281 -9.945312 0 -9.945312 Z M 0 -9.945312 "/></g></g></g><g fill="#000000" fill-opacity="1"><g transform="translate(220.987905, 297.962997)"><g><path d="M 2.3125 -2.476562 C 2.3125 -4.140625 2.3125 -5.804688 2.3125 -7.46875 C 2.3125 -8.503906 2.375 -9.195312 2.679688 -9.945312 C 1.785156 -9.945312 0.894531 -9.945312 0 -9.945312 C 0.285156 -9.195312 0.367188 -8.503906 0.367188 -7.46875 C 0.367188 -5.804688 0.367188 -4.140625 0.367188 -2.476562 C 0.367188 -1.460938 0.285156 -0.769531 0 0 C 0.894531 0 1.785156 0 2.679688 0 C 2.375 -0.769531 2.3125 -1.460938 2.3125 -2.476562 Z M 1.339844 -12.582031 C 0.792969 -12.582031 0.367188 -12.15625 0.367188 -11.609375 C 0.367188 -11.0625 0.792969 -10.632812 1.339844 -10.632812 C 1.867188 -10.632812 2.3125 -11.0625 2.3125 -11.609375 C 2.3125 -12.15625 1.867188 -12.582031 1.339844 -12.582031 Z M 1.339844 -12.582031 "/></g></g></g><g fill="#000000" fill-opacity="1"><g transform="translate(225.369504, 297.962997)"><g><path d="M 0 -9.945312 C 0.285156 -9.195312 0.367188 -8.503906 0.367188 -7.46875 L 0.367188 -2.476562 C 0.367188 -1.460938 0.285156 -0.769531 0 0 C 0.894531 0 1.785156 0 2.679688 0 C 2.375 -0.769531 2.3125 -1.460938 2.3125 -2.476562 L 2.3125 -7.328125 C 2.3125 -7.367188 2.3125 -7.429688 2.3125 -7.488281 C 2.964844 -7.855469 3.917969 -8.339844 4.769531 -8.625 C 6.269531 -9.113281 7.46875 -8.949219 7.46875 -7 L 7.46875 -2.476562 C 7.46875 -1.460938 7.386719 -0.769531 7.101562 0 C 7.996094 0 8.890625 0 9.78125 0 C 9.5 -0.769531 9.417969 -1.460938 9.417969 -2.476562 C 9.417969 -3.9375 9.417969 -5.867188 9.417969 -7.40625 C 9.417969 -9.09375 8.503906 -9.945312 6.839844 -9.945312 C 5.234375 -9.945312 3.570312 -9.03125 2.292969 -8.238281 C 2.273438 -8.828125 2.171875 -9.375 1.949219 -9.945312 Z M 0 -9.945312 "/></g></g></g><g fill="#000000" fill-opacity="1"><g transform="translate(236.850926, 297.962997)"><g><path d="M 4.222656 -1.644531 C 3.429688 -2.152344 4.121094 -2.882812 5.417969 -3.207031 C 6.089844 -3.390625 6.859375 -3.492188 7.53125 -3.714844 C 9.699219 -4.445312 9.984375 -6.796875 8.605469 -8.382812 C 7.753906 -9.355469 6.394531 -9.945312 4.972656 -9.945312 C 2.234375 -9.945312 0 -7.710938 0 -4.972656 C 0 -2.234375 2.234375 0 4.972656 0 C 6.921875 0 8.625 -1.117188 9.4375 -2.761719 L 9.050781 -3.289062 C 8.28125 -1.5 5.945312 -0.546875 4.222656 -1.644531 Z M 3.125 -2.457031 C 2.839844 -2.738281 2.597656 -3.066406 2.375 -3.449219 C 1.175781 -5.480469 1.359375 -7.8125 2.800781 -8.644531 C 3.328125 -8.949219 3.917969 -9.011719 4.484375 -8.929688 C 5.742188 -8.707031 7.042969 -7.710938 7.40625 -6.472656 C 7.652344 -5.640625 7.429688 -4.789062 6.472656 -4.382812 C 5.335938 -3.917969 3.734375 -3.695312 3.125 -2.457031 Z M 3.125 -2.457031 "/></g></g></g><g fill="#000000" fill-opacity="1"><g transform="translate(248.048351, 297.962997)"><g><path d="M 8.929688 -9.945312 C 5.90625 -9.945312 3.328125 -9.945312 0.304688 -9.945312 L 0.304688 -7.996094 C 0.953125 -8.664062 2.050781 -9.234375 3.003906 -9.234375 L 6.089844 -9.234375 L -0.121094 0 C 2.902344 0 5.480469 0 8.503906 0 L 8.503906 -1.949219 C 7.875 -1.277344 6.757812 -0.710938 5.824219 -0.710938 L 2.699219 -0.710938 Z M 8.929688 -9.945312 "/></g></g></g><g fill="#000000" fill-opacity="1"><g transform="translate(69.122699, 268.56388)"><g><path d="M 0 0 L 10.054688 0 C 15.5 0 18.386719 -2.789062 18.386719 -6.472656 C 18.386719 -10.054688 15.964844 -12.414062 12.378906 -13.007812 C 15.234375 -14.4375 17.921875 -16.03125 17.921875 -19.613281 C 17.921875 -22.433594 15.332031 -24.890625 10.054688 -24.890625 L 0 -24.890625 C 0.464844 -23.628906 0.597656 -22.167969 0.597656 -20.476562 C 0.597656 -17.753906 0.597656 -7.136719 0.597656 -4.414062 C 0.597656 -2.722656 0.464844 -1.261719 0 0 Z M 11.183594 -12.445312 C 13.242188 -11.617188 14.570312 -9.160156 14.535156 -6.835938 C 14.535156 -3.785156 12.3125 -1.160156 7.300781 -1.160156 L 4.414062 -1.160156 L 4.414062 -5.875 C 4.414062 -9.457031 8.265625 -10.984375 11.183594 -12.445312 Z M 4.414062 -23.730469 L 7.269531 -23.730469 C 11.847656 -23.730469 14.070312 -21.9375 14.070312 -19.613281 C 14.070312 -13.90625 7.003906 -13.605469 4.414062 -9.125 Z M 4.414062 -23.730469 "/></g></g></g><g fill="#000000" fill-opacity="1"><g transform="translate(90.26314, 268.56388)"><g><path d="M 13.574219 -24.890625 L 9.457031 -24.890625 L 2.058594 -4.378906 C 1.527344 -2.921875 0.730469 -1.226562 0 0 L 4.347656 0 C 3.285156 -1.792969 2.988281 -3.152344 3.417969 -4.378906 C 4.015625 -6.007812 4.613281 -7.335938 6.171875 -8.230469 C 8.460938 -9.589844 12.015625 -9.558594 14.335938 -8.132812 C 15.699219 -7.269531 16.328125 -6.007812 16.925781 -4.3125 C 17.457031 -2.886719 18.019531 -1.160156 18.019531 0 L 23.066406 0 C 22.335938 -1.226562 21.503906 -2.921875 20.972656 -4.378906 Z M 15.199219 -9.125 C 12.28125 -10.984375 8.03125 -10.984375 5.144531 -9.125 L 10.15625 -22.964844 Z M 15.199219 -9.125 "/></g></g></g><g fill="#000000" fill-opacity="1"><g transform="translate(116.083023, 268.56388)"><g><path d="M 9.824219 -24.890625 L 0 -24.890625 C 0.464844 -23.628906 0.597656 -22.167969 0.597656 -20.476562 C 0.597656 -17.753906 0.597656 -7.136719 0.597656 -4.414062 C 0.597656 -2.722656 0.464844 -1.261719 0 0 C 1.460938 0 3.550781 0 5.011719 0 C 4.546875 -1.261719 4.414062 -2.722656 4.414062 -4.414062 L 4.414062 -5.109375 C 4.414062 -7.765625 5.90625 -9.359375 7.898438 -10.621094 L 11.980469 -2.953125 C 12.511719 -1.992188 12.875 -1.0625 13.109375 0 L 18.386719 0 C 17.554688 -1.0625 16.363281 -2.953125 15.566406 -4.414062 L 11.285156 -12.414062 C 14.636719 -14.039062 17.921875 -15.699219 17.921875 -19.613281 C 17.921875 -22.5 15.367188 -24.890625 9.824219 -24.890625 Z M 4.414062 -9.09375 L 4.414062 -23.730469 L 6.40625 -23.730469 C 10.386719 -23.730469 13.972656 -22.832031 14.070312 -19.78125 C 14.269531 -14.667969 7.203125 -13.804688 4.414062 -9.09375 Z M 4.414062 -9.09375 "/></g></g></g><g fill="#000000" fill-opacity="1"><g transform="translate(137.223464, 268.56388)"><g><path d="M 0 0 L 10.054688 0 C 15.5 0 18.386719 -2.789062 18.386719 -6.472656 C 18.386719 -10.054688 15.964844 -12.414062 12.378906 -13.007812 C 15.234375 -14.4375 17.921875 -16.03125 17.921875 -19.613281 C 17.921875 -22.433594 15.332031 -24.890625 10.054688 -24.890625 L 0 -24.890625 C 0.464844 -23.628906 0.597656 -22.167969 0.597656 -20.476562 C 0.597656 -17.753906 0.597656 -7.136719 0.597656 -4.414062 C 0.597656 -2.722656 0.464844 -1.261719 0 0 Z M 11.183594 -12.445312 C 13.242188 -11.617188 14.570312 -9.160156 14.535156 -6.835938 C 14.535156 -3.785156 12.3125 -1.160156 7.300781 -1.160156 L 4.414062 -1.160156 L 4.414062 -5.875 C 4.414062 -9.457031 8.265625 -10.984375 11.183594 -12.445312 Z M 4.414062 -23.730469 L 7.269531 -23.730469 C 11.847656 -23.730469 14.070312 -21.9375 14.070312 -19.613281 C 14.070312 -13.90625 7.003906 -13.605469 4.414062 -9.125 Z M 4.414062 -23.730469 "/></g></g></g><g fill="#000000" fill-opacity="1"><g transform="translate(158.363905, 268.56388)"><g><path d="M 17.289062 0 L 17.523438 -3.785156 L 17.222656 -3.785156 C 16.957031 -3.085938 15.832031 -1.292969 12.84375 -1.292969 L 4.414062 -1.292969 L 4.414062 -10.753906 L 8.066406 -10.753906 C 11.050781 -10.753906 12.179688 -8.960938 12.445312 -8.265625 L 12.742188 -8.265625 C 12.742188 -10.355469 12.742188 -12.445312 12.742188 -14.535156 L 12.445312 -14.535156 C 12.179688 -13.839844 11.050781 -12.046875 8.066406 -12.046875 L 4.414062 -12.046875 L 4.414062 -23.597656 L 11.914062 -23.597656 C 14.902344 -23.597656 15.996094 -21.804688 16.296875 -21.105469 L 16.5625 -21.105469 L 16.328125 -24.890625 L 0 -24.890625 C 0.464844 -23.628906 0.597656 -22.167969 0.597656 -20.476562 C 0.597656 -17.753906 0.597656 -7.136719 0.597656 -4.414062 C 0.597656 -2.722656 0.464844 -1.261719 0 0 Z M 17.289062 0 "/></g></g></g><g fill="#000000" fill-opacity="1"><g transform="translate(178.67466, 268.56388)"><g><path d="M 9.824219 -24.890625 L 0 -24.890625 C 0.464844 -23.628906 0.597656 -22.167969 0.597656 -20.476562 C 0.597656 -17.753906 0.597656 -7.136719 0.597656 -4.414062 C 0.597656 -2.722656 0.464844 -1.261719 0 0 C 1.460938 0 3.550781 0 5.011719 0 C 4.546875 -1.261719 4.414062 -2.722656 4.414062 -4.414062 L 4.414062 -5.109375 C 4.414062 -7.765625 5.90625 -9.359375 7.898438 -10.621094 L 11.980469 -2.953125 C 12.511719 -1.992188 12.875 -1.0625 13.109375 0 L 18.386719 0 C 17.554688 -1.0625 16.363281 -2.953125 15.566406 -4.414062 L 11.285156 -12.414062 C 14.636719 -14.039062 17.921875 -15.699219 17.921875 -19.613281 C 17.921875 -22.5 15.367188 -24.890625 9.824219 -24.890625 Z M 4.414062 -9.09375 L 4.414062 -23.730469 L 6.40625 -23.730469 C 10.386719 -23.730469 13.972656 -22.832031 14.070312 -19.78125 C 14.269531 -14.667969 7.203125 -13.804688 4.414062 -9.09375 Z M 4.414062 -9.09375 "/></g></g></g><g fill="#000000" fill-opacity="1"><g transform="translate(199.815101, 268.56388)"><g/></g></g><g fill="#000000" fill-opacity="1"><g transform="translate(211.264788, 268.56388)"><g><path d="M 17.554688 -18.085938 L 17.855469 -18.085938 L 17.855469 -22.867188 C 17.488281 -22.699219 17.15625 -22.964844 16.757812 -23.230469 C 14.835938 -24.625 12.3125 -25.355469 9.492188 -25.355469 C 7.234375 -25.355469 4.746094 -24.792969 3.054688 -23.398438 C -0.0976562 -20.773438 0.597656 -16.097656 4.082031 -14.136719 C 6.339844 -12.910156 8.992188 -12.378906 11.417969 -11.417969 C 13.605469 -10.519531 15.898438 -9.125 15.898438 -6.4375 C 15.898438 -3.484375 13.574219 -0.894531 9.890625 -0.894531 C 7.933594 -0.894531 6.171875 -1.359375 4.578125 -2.457031 C 1.328125 -4.710938 0.960938 -7.167969 0.960938 -10.886719 L 0.664062 -10.886719 L 0 -3.054688 C 0.464844 -3.1875 0.929688 -2.855469 1.195312 -2.621094 C 3.453125 -0.664062 7.136719 0.464844 9.757812 0.464844 C 12.214844 0.464844 14.835938 -0.230469 16.824219 -1.757812 C 20.808594 -4.8125 21.007812 -10.320312 16.726562 -13.207031 C 13.9375 -15.101562 9.890625 -15.898438 7.035156 -17.125 C 5.078125 -17.988281 4.644531 -19.980469 5.242188 -21.472656 C 6.074219 -23.398438 8.59375 -24.0625 10.1875 -24.027344 C 14.203125 -24.027344 17.390625 -22.167969 17.554688 -18.085938 Z M 17.554688 -18.085938 "/></g></g></g><g fill="#000000" fill-opacity="1"><g transform="translate(233.898671, 268.56388)"><g><path d="M 4.414062 -4.414062 L 4.414062 -10.753906 L 15.5 -10.753906 L 15.5 -4.414062 C 15.5 -2.722656 15.367188 -1.261719 14.902344 0 L 19.914062 0 C 19.449219 -1.261719 19.316406 -2.722656 19.316406 -4.414062 C 19.316406 -7.136719 19.316406 -17.753906 19.316406 -20.476562 C 19.316406 -22.167969 19.449219 -23.628906 19.914062 -24.890625 L 14.902344 -24.890625 C 15.367188 -23.628906 15.5 -22.167969 15.5 -20.476562 L 15.5 -12.046875 L 4.414062 -12.046875 L 4.414062 -20.476562 C 4.414062 -22.167969 4.546875 -23.628906 5.011719 -24.890625 L 0 -24.890625 C 0.464844 -23.628906 0.597656 -22.167969 0.597656 -20.476562 C 0.597656 -17.753906 0.597656 -7.136719 0.597656 -4.414062 C 0.597656 -2.722656 0.464844 -1.261719 0 0 L 5.011719 0 C 4.546875 -1.261719 4.414062 -2.722656 4.414062 -4.414062 Z M 4.414062 -4.414062 "/></g></g></g><g fill="#000000" fill-opacity="1"><g transform="translate(256.565742, 268.56388)"><g><path d="M 12.910156 -25.355469 C 5.773438 -25.355469 0 -19.582031 0 -12.445312 C 0 -5.308594 5.773438 0.464844 12.910156 0.464844 C 20.046875 0.464844 25.820312 -5.308594 25.820312 -12.445312 C 25.820312 -19.582031 20.046875 -25.355469 12.910156 -25.355469 Z M 18.484375 -2.324219 C 14.136719 0.0664062 8.164062 -2.554688 5.078125 -8.164062 C 1.992188 -13.738281 3.019531 -20.210938 7.335938 -22.601562 C 11.648438 -24.957031 17.65625 -22.335938 20.742188 -16.757812 C 23.796875 -11.152344 22.800781 -4.679688 18.484375 -2.324219 Z M 18.484375 -2.324219 "/></g></g></g><g fill="#000000" fill-opacity="1"><g transform="translate(285.206548, 268.56388)"><g><path d="M 9.824219 -24.890625 L 0 -24.890625 C 0.464844 -23.628906 0.597656 -22.167969 0.597656 -20.476562 C 0.597656 -17.753906 0.597656 -7.136719 0.597656 -4.414062 C 0.597656 -2.722656 0.464844 -1.261719 0 0 C 1.460938 0 3.550781 0 5.011719 0 C 4.546875 -1.261719 4.414062 -2.722656 4.414062 -4.414062 L 4.414062 -5.109375 C 4.414062 -13.074219 17.921875 -11.648438 17.921875 -19.613281 C 17.921875 -22.5 15.367188 -24.890625 9.824219 -24.890625 Z M 4.414062 -9.09375 L 4.414062 -23.730469 L 6.40625 -23.730469 C 10.386719 -23.730469 13.972656 -22.832031 14.070312 -19.78125 C 14.269531 -14.667969 7.203125 -13.804688 4.414062 -9.09375 Z M 4.414062 -9.09375 "/></g></g></g></svg>